<svg xmlns="http://www.w3.org/2000/svg" width="280" height="92" viewBox="0 0 280 92" fill="none">
  <path d="M0 0H280V38C263 38 266 68 245 68C224 68 227 38 210 38C193 38 196 68 175 68C154 68 157 38 140 38C123 38 126 68 105 68C84 68 87 38 70 38C53 38 56 68 35 68C14 68 17 38 0 38V0Z" fill="#FFFDF0"/>
  <path d="M0 0H280V8H0V0Z" fill="#FFFDF0"/>
  <path d="M48.5 24.9C43.4 17.8 31 19.1 31 30C31 40.9 48.5 49 48.5 49C48.5 49 66 40.9 66 30C66 19.1 53.6 17.8 48.5 24.9Z" fill="#9DCCEA"/>
  <path d="M188.5 24.9C183.4 17.8 171 19.1 171 30C171 40.9 188.5 49 188.5 49C188.5 49 206 40.9 206 30C206 19.1 193.6 17.8 188.5 24.9Z" fill="#9DCCEA"/>
  <g fill="#CFE8F7">
    <circle cx="93" cy="30" r="4"/>
    <circle cx="112" cy="30" r="4"/>
    <circle cx="101" cy="44" r="3"/>
    <circle cx="224" cy="30" r="4"/>
    <circle cx="243" cy="30" r="4"/>
    <circle cx="233" cy="44" r="3"/>
    <circle cx="9" cy="44" r="3"/>
    <circle cx="21" cy="44" r="3"/>
    <circle cx="262" cy="44" r="3"/>
    <circle cx="274" cy="44" r="3"/>
  </g>
  <path d="M0 70C12 80 23 85 35 85C56 85 55 55 70 55C85 55 84 85 105 85C126 85 125 55 140 55C155 55 154 85 175 85C196 85 195 55 210 55C225 55 224 85 245 85C257 85 268 80 280 70" stroke="#FFFDF0" stroke-width="14" stroke-linecap="round"/>
</svg>
